# xmcd CD database file
#
# Track frame offsets:
#	150
#	27455
#	54435
#	87742
#	113002
#	135777
#	155560
#	178905
#	206022
#	225417
#	247937
#	270705
#
# Disc length: 3848 seconds
#
# Revision: 5
# Processed by: cddbd v1.4PL0 Copyright (c) Steve Scherf et al.
# Submitted via: CDex 1.50
#
DISCID=9d0f060c
DTITLE=Kenny G - The Moment
DYEAR=1996
DGENRE=Jazz
TTITLE0=The Moment
TTITLE1=Passages
TTITLE2=Havana
TTITLE3=Always
TTITLE4=That Somebody Was You
TTITLE5=The Champion's Theme
TTITLE6=Eastside Jam
TTITLE7=Moonlight
TTITLE8=Gettin' On The Step
TTITLE9=Everytime I Close My Eyes
TTITLE10=Northern Lights
TTITLE11=Innocence
EXTD=YEAR: 1996
EXTT0=
EXTT1=
EXTT2=
EXTT3=
EXTT4=
EXTT5=
EXTT6=
EXTT7=
EXTT8=
EXTT9=
EXTT10=
EXTT11=
PLAYORDER=
